<svg width="60" height="60" viewBox="0 0 60 60" fill="none" xmlns="http://www.w3.org/2000/svg">
<path d="M54.3756 29.9998C54.3635 35.955 52.178 41.701 48.2293 46.1589C44.2806 50.6167 38.8405 53.4799 32.9303 54.2107C32.7984 54.2237 32.6652 54.2092 32.5392 54.1682C32.4132 54.1272 32.297 54.0606 32.1979 53.9726C32.0989 53.8846 32.0191 53.777 31.9636 53.6566C31.9082 53.5363 31.8782 53.4057 31.8756 53.2732V35.6248H37.5006C37.757 35.6253 38.0108 35.5732 38.2463 35.4717C38.4817 35.3703 38.6939 35.2216 38.8696 35.0348C39.0454 34.8481 39.1809 34.6273 39.268 34.3862C39.355 34.145 39.3916 33.8885 39.3756 33.6326C39.3341 33.1478 39.1103 32.6967 38.7492 32.3705C38.3882 32.0442 37.9168 31.8671 37.4303 31.8748H31.8756V26.2498C31.8756 25.2552 32.2707 24.3014 32.9739 23.5981C33.6772 22.8949 34.631 22.4998 35.6256 22.4998H39.3756C39.632 22.5003 39.8858 22.4482 40.1213 22.3467C40.3567 22.2452 40.5689 22.0966 40.7446 21.9098C40.9204 21.7231 41.0559 21.5024 41.143 21.2612C41.23 21.02 41.2666 20.7635 41.2506 20.5076C41.2091 20.0228 40.9853 19.5717 40.6242 19.2455C40.2632 18.9192 39.7918 18.7421 39.3053 18.7498H35.6256C33.6365 18.7498 31.7288 19.54 30.3223 20.9465C28.9158 22.353 28.1256 24.2607 28.1256 26.2498V31.8748H22.5006C22.2442 31.8743 21.9904 31.9264 21.7549 32.0278C21.5195 32.1293 21.3073 32.278 21.1316 32.4647C20.9558 32.6514 20.8203 32.8722 20.7332 33.1134C20.6462 33.3546 20.6096 33.6111 20.6256 33.867C20.6671 34.3518 20.8909 34.8029 21.252 35.1291C21.613 35.4553 22.0844 35.6325 22.5709 35.6248H28.1256V53.2732C28.1263 53.4046 28.0993 53.5347 28.0464 53.655C27.9936 53.7754 27.916 53.8832 27.8187 53.9716C27.7215 54.06 27.6068 54.127 27.482 54.1682C27.3572 54.2094 27.2251 54.2239 27.0943 54.2107C14.7193 52.7107 5.15685 41.9529 5.64904 29.0857C5.92533 22.7313 8.67447 16.7366 13.3097 12.3811C17.9449 8.02567 24.0989 5.65453 30.4582 5.77382C36.8175 5.89312 42.8783 8.4934 47.3469 13.0196C51.8154 17.5459 54.3378 23.6395 54.3756 29.9998Z" fill="white"/>
</svg>
