<svg width="24" height="24" viewBox="0 0 24 24" fill="none" xmlns="http://www.w3.org/2000/svg">
<path fill-rule="evenodd" clip-rule="evenodd" d="M7.9286 6.6C7.9286 5.64522 8.30487 4.72955 8.97464 4.05441C9.6444 3.37928 10.5528 3 11.5 3C12.4472 3 13.3556 3.37928 14.0254 4.05441C14.6951 4.72955 15.0714 5.64522 15.0714 6.6C15.0714 7.55478 14.6951 8.47045 14.0254 9.14558C13.3556 9.82071 12.4472 10.2 11.5 10.2C10.5528 10.2 9.6444 9.82071 8.97464 9.14558C8.30487 8.47045 7.9286 7.55478 7.9286 6.6ZM15.0714 9.47999C15.0714 8.71617 15.3724 7.98363 15.9082 7.44353C16.444 6.90342 17.1708 6.6 17.9285 6.6C18.6863 6.6 19.413 6.90342 19.9488 7.44353C20.4846 7.98363 20.7856 8.71617 20.7856 9.47999C20.7856 10.2438 20.4846 10.9764 19.9488 11.5165C19.413 12.0566 18.6863 12.36 17.9285 12.36C17.1708 12.36 16.444 12.0566 15.9082 11.5165C15.3724 10.9764 15.0714 10.2438 15.0714 9.47999ZM2.21436 9.47999C2.21436 8.71617 2.51537 7.98363 3.05119 7.44353C3.587 6.90342 4.31372 6.6 5.07148 6.6C5.82923 6.6 6.55595 6.90342 7.09177 7.44353C7.62758 7.98363 7.9286 8.71617 7.9286 9.47999C7.9286 10.2438 7.62758 10.9764 7.09177 11.5165C6.55595 12.0566 5.82923 12.36 5.07148 12.36C4.31372 12.36 3.587 12.0566 3.05119 11.5165C2.51537 10.9764 2.21436 10.2438 2.21436 9.47999ZM6.08099 14.6323C6.66189 13.7146 7.46296 12.9593 8.41014 12.4363C9.35731 11.9132 10.42 11.6394 11.5 11.64C12.4046 11.6392 13.2991 11.8309 14.1251 12.2027C14.9511 12.5745 15.6898 13.1179 16.293 13.7975C16.8962 14.477 17.3502 15.2773 17.6253 16.1459C17.9005 17.0145 17.9905 17.9319 17.8895 18.8381C17.8771 18.9506 17.8386 19.0587 17.7771 19.1534C17.7155 19.2482 17.6326 19.327 17.5352 19.3833C15.6986 20.4456 13.6175 21.0031 11.5 21C9.38251 21.0033 7.3013 20.4459 5.46481 19.3833C5.36737 19.327 5.2845 19.2482 5.22294 19.1534C5.16139 19.0587 5.12287 18.9506 5.11052 18.8381C4.95058 17.366 5.29287 15.883 6.08099 14.6333V14.6323Z" fill="#6C74CA"/>
<path d="M4.91148 13.8037C3.97221 15.2652 3.53459 16.997 3.66577 18.7333C3.09388 18.6459 2.53141 18.5045 1.98579 18.3109L1.87626 18.2725C1.77855 18.2375 1.69298 18.1748 1.62993 18.0918C1.56688 18.0088 1.52905 17.9092 1.52103 17.805L1.51151 17.6888C1.47303 17.2069 1.53127 16.722 1.68275 16.2633C1.83422 15.8045 2.07582 15.3812 2.39314 15.0186C2.71046 14.656 3.09699 14.3616 3.52966 14.1528C3.96233 13.9441 4.43229 13.8254 4.91148 13.8037ZM19.3342 18.7333C19.4654 16.997 19.0278 15.2652 18.0885 13.8037C18.5677 13.8254 19.0377 13.9441 19.4703 14.1528C19.903 14.3616 20.2895 14.656 20.6069 15.0186C20.9242 15.3812 21.1658 15.8045 21.3173 16.2633C21.4687 16.722 21.527 17.2069 21.4885 17.6888L21.479 17.805C21.4708 17.909 21.4329 18.0084 21.3698 18.0912C21.3068 18.174 21.2213 18.2367 21.1237 18.2715L21.0142 18.3099C20.4742 18.5019 19.9133 18.645 19.3342 18.7333Z" fill="#6C74CA"/>
</svg>
