<svg width="28" height="28" viewBox="0 0 28 28" fill="none" xmlns="http://www.w3.org/2000/svg">
<circle cx="14" cy="14" r="14" fill="white"/>
<path d="M13 20C13 20 12 20 12 19C12 18 13 15 17 15C21 15 22 18 22 19C22 20 21 20 21 20H13ZM17 14C17.7956 14 18.5587 13.6839 19.1213 13.1213C19.6839 12.5587 20 11.7956 20 11C20 10.2044 19.6839 9.44129 19.1213 8.87868C18.5587 8.31607 17.7956 8 17 8C16.2044 8 15.4413 8.31607 14.8787 8.87868C14.3161 9.44129 14 10.2044 14 11C14 11.7956 14.3161 12.5587 14.8787 13.1213C15.4413 13.6839 16.2044 14 17 14ZM11.216 20C11.0678 19.6878 10.9938 19.3455 11 19C11 17.645 11.68 16.25 12.936 15.28C12.3091 15.0868 11.6559 14.9924 11 15C7 15 6 18 6 19C6 20 7 20 7 20H11.216ZM10.5 14C11.163 14 11.7989 13.7366 12.2678 13.2678C12.7366 12.7989 13 12.163 13 11.5C13 10.837 12.7366 10.2011 12.2678 9.73223C11.7989 9.26339 11.163 9 10.5 9C9.83696 9 9.20107 9.26339 8.73223 9.73223C8.26339 10.2011 8 10.837 8 11.5C8 12.163 8.26339 12.7989 8.73223 13.2678C9.20107 13.7366 9.83696 14 10.5 14Z" fill="#6C74CA"/>
</svg>
