<svg width="20" height="20" viewBox="0 0 20 20" fill="none" xmlns="http://www.w3.org/2000/svg">
<g clip-path="url(#clip0_463_1763)">
<path fill-rule="evenodd" clip-rule="evenodd" d="M16.7756 2.63333C16.3068 2.16466 15.671 1.90137 15.0081 1.90137C14.3452 1.90137 13.7094 2.16466 13.2406 2.63333L12.6514 3.22333L16.7764 7.34833L17.3648 6.75917C17.597 6.52702 17.7812 6.2514 17.9068 5.94806C18.0325 5.64472 18.0972 5.31959 18.0972 4.99125C18.0972 4.66291 18.0325 4.33779 17.9068 4.03444C17.7812 3.7311 17.597 3.45549 17.3648 3.22333L16.7756 2.63333ZM15.5973 8.52667L11.4723 4.40167L3.89728 11.9775C3.73151 12.1433 3.61572 12.3524 3.56311 12.5808L2.70561 16.2933C2.67366 16.4312 2.67732 16.5748 2.71626 16.7109C2.7552 16.8469 2.82812 16.9707 2.92816 17.0708C3.0282 17.1708 3.15206 17.2437 3.28808 17.2827C3.4241 17.3216 3.56779 17.3253 3.70561 17.2933L7.41894 16.4367C7.64712 16.3839 7.85588 16.2681 8.02144 16.1025L15.5973 8.52667Z" fill="#6C74CA"/>
</g>
<defs>
<clipPath id="clip0_463_1763">
<rect width="20" height="20" fill="white"/>
</clipPath>
</defs>
</svg>
