<svg width="60" height="60" viewBox="0 0 60 60" fill="none" xmlns="http://www.w3.org/2000/svg">
<path d="M54.9141 16.3594C54.6986 15.4953 54.2769 14.6963 53.685 14.031C53.0931 13.3656 52.3487 12.8537 51.5156 12.5391C43.5 9.44532 30.7031 9.46876 30 9.46876C29.2969 9.46876 16.5 9.44532 8.48438 12.5391C7.65127 12.8537 6.90687 13.3656 6.31498 14.031C5.72309 14.6963 5.30136 15.4953 5.08594 16.3594C4.47656 18.6797 3.75 22.9453 3.75 30C3.75 37.0547 4.47656 41.3203 5.08594 43.6406C5.30136 44.5047 5.72309 45.3037 6.31498 45.969C6.90687 46.6344 7.65127 47.1463 8.48438 47.4609C16.1719 50.4375 28.2188 50.5313 29.8359 50.5313H30.1641C31.7812 50.5313 43.8281 50.4375 51.5156 47.4609C52.3487 47.1463 53.0931 46.6344 53.685 45.969C54.2769 45.3037 54.6986 44.5047 54.9141 43.6406C55.5234 41.3203 56.25 37.0547 56.25 30C56.25 22.9453 55.5234 18.6797 54.9141 16.3594ZM38.0156 30.7734L26.7656 38.2734C26.6164 38.3833 26.4352 38.4409 26.25 38.4375C26.0947 38.4317 25.9427 38.3917 25.8047 38.3203C25.6549 38.2424 25.5296 38.1245 25.4427 37.9797C25.3558 37.8349 25.3108 37.6689 25.3125 37.5V22.5C25.3108 22.3312 25.3558 22.1651 25.4427 22.0203C25.5296 21.8755 25.6549 21.7576 25.8047 21.6797C25.9542 21.6 26.1224 21.5622 26.2916 21.5705C26.4608 21.5787 26.6246 21.6327 26.7656 21.7266L38.0156 29.2266C38.1464 29.3089 38.2541 29.423 38.3287 29.5583C38.4034 29.6935 38.4426 29.8455 38.4426 30C38.4426 30.1545 38.4034 30.3065 38.3287 30.4417C38.2541 30.577 38.1464 30.6911 38.0156 30.7734Z" fill="white"/>
</svg>
